<svg xmlns="http://www.w3.org/2000/svg"  viewBox="0 0 96 96" width="96px" height="96px" baseProfile="basic"><path fill="#ffad00" d="M30.358,81.954c-5.634,0-9.502-0.608-12.315-3.234	c-2.654-2.477-3.878-6.366-4.094-13.008c-0.135-4.125,0.087-19.585,0.501-25.907c0.089-1.359,1.069-2.448,2.334-2.732	c-0.371-0.235-0.719-0.514-1.036-0.832c-1.133-1.134-1.755-2.641-1.753-4.243L14,25c0-9.667,6.703-11,13.947-11	c1.211,0,2.769-0.005,4.543-0.01c4.347-0.013,10.301-0.029,15.481,0.011l4.193-0.038c16.198-0.16,22.269-0.215,25.867,3.351	C80.947,20.2,80.947,24.741,80.947,30c0,1.264-0.781,2.345-1.888,2.787c1.76,1.004,2.948,2.873,3.002,5.058	c0.193,7.857-0.029,23.491-0.096,26.939c-0.137,7.268-1.314,11.294-4.066,13.897c-3.869,3.66-9.758,3.444-19.511,3.087	c-3.062-0.111-6.532-0.239-10.466-0.27c-3.861,0.032-7.314,0.158-10.361,0.27C34.882,81.867,32.493,81.954,30.358,81.954z M19.672,37.991c0.522,0.581,0.82,1.363,0.765,2.204c-0.396,6.051-0.619,21.396-0.491,25.321c0.155,4.765,0.852,7.566,2.191,8.816	c2.058,1.921,7.288,1.729,15.206,1.439c3.086-0.112,6.584-0.24,10.579-0.273c4.068,0.031,7.584,0.16,10.686,0.273	c7.909,0.291,13.128,0.481,15.168-1.449c1.396-1.321,2.093-4.388,2.192-9.652c0.064-3.423,0.286-18.929,0.096-26.678L61.216,38	c-1.362,0-2.674-0.383-3.791-1.107C56.084,36.022,52.477,34,47.947,34s-8.137,2.022-9.477,2.892C37.353,37.617,36.041,38,34.678,38	H19.995C19.887,38,19.779,37.997,19.672,37.991z M40.404,19.976c-2.851,0-5.599,0.008-7.896,0.015	C30.727,19.995,29.163,20,27.947,20C20,20,20,21.671,20,25l-0.005,7.004L34.678,32c0.199,0,0.387-0.051,0.528-0.143	C37.427,30.417,42.036,28,47.947,28s10.521,2.417,12.742,3.858C60.83,31.949,61.018,32,61.216,32h14.495	c-0.475-0.53-0.764-1.231-0.764-2c0-4.273-0.082-7.379-1.137-8.424c-1.821-1.804-9.261-1.734-21.588-1.614l-4.25,0.039	C45.532,19.981,42.928,19.976,40.404,19.976z" opacity=".3"/><path fill="#ffad00" d="M30.37,80.954c-5.393,0-9.074-0.566-11.646-2.965c-2.44-2.278-3.57-5.96-3.776-12.31	c-0.134-4.109,0.088-19.51,0.499-25.811c0.072-1.102,1.014-1.943,2.127-1.865c1.102,0.072,1.937,1.024,1.865,2.127	c-0.397,6.072-0.622,21.478-0.493,25.418c0.166,5.117,0.939,8.053,2.508,9.516c2.361,2.204,7.466,2.018,15.925,1.708	c3.08-0.113,6.57-0.24,10.551-0.273c4.038,0.031,7.546,0.16,10.642,0.273c8.444,0.31,13.546,0.497,15.892-1.723	c1.626-1.538,2.398-4.733,2.504-10.36c0.065-3.427,0.287-18.954,0.097-26.722C77.05,37.425,76.61,37,76.063,37H61.216	c-1.169,0-2.292-0.327-3.247-0.947C56.553,35.135,52.744,33,47.947,33s-8.605,2.135-10.021,3.053C36.971,36.673,35.848,37,34.678,37	H19.995c-1.338,0-2.596-0.521-3.54-1.467c-0.943-0.944-1.462-2.199-1.46-3.534L15,25c0-8.327,4.954-10,12.947-10	c1.212,0,2.771-0.005,4.546-0.01c4.343-0.013,10.295-0.028,15.471,0.011l4.21-0.039c15.457-0.146,21.852-0.209,25.155,3.062	c2.491,2.468,2.618,6.159,2.618,11.977c0,1.104-0.896,2-2,2s-2-0.896-2-2c0-4.801-0.097-7.811-1.434-9.135	c-2.117-2.097-8.862-2.033-22.301-1.903l-4.248,0.039c-5.187-0.042-11.125-0.023-15.46-0.011c-1.78,0.005-3.343,0.01-4.558,0.01	C19.416,19,19,21.168,19,25l-0.005,7.003c0,0.359,0.182,0.595,0.29,0.704C19.475,32.896,19.727,33,19.995,33h14.683	c0.396,0,0.767-0.104,1.072-0.303C37.878,31.316,42.293,29,47.947,29s10.069,2.316,12.198,3.697C60.45,32.896,60.821,33,61.216,33	h14.848c2.735,0,4.932,2.139,4.998,4.87c0.193,7.839-0.029,23.451-0.095,26.896c-0.132,6.97-1.219,10.791-3.755,13.189	c-3.564,3.371-9.295,3.163-18.787,2.814c-3.068-0.112-6.546-0.239-10.494-0.271c-3.892,0.032-7.353,0.159-10.405,0.271	C34.854,80.867,32.481,80.954,30.37,80.954z" opacity=".3"/><path fill="#0fd2ff" d="M48.498,72c-0.197,0-0.395-0.004-0.593-0.011c-7.912-0.439-13.748-4.384-16.075-10.824	c-2.459-6.807-0.472-15.005,4.832-19.936c5.017-4.666,12.008-5.504,19.176-2.308c1.108,0.494,1.77,1.578,1.779,2.717	c1.002-0.289,2.125-0.046,2.925,0.732c4.93,4.797,6.256,12.253,3.379,18.996C61.103,67.97,55.229,72,48.498,72z M47.438,42.987	c-3.048,0-5.232,1.28-6.691,2.637c-3.536,3.287-4.913,8.966-3.273,13.502c1.055,2.921,3.769,6.483,10.703,6.87	c5.253,0.17,8.733-3.487,10.226-6.984c1.509-3.536,1.764-8.635-2.044-12.34c-0.599-0.583-0.902-1.354-0.908-2.128	c-0.656,0.189-1.383,0.158-2.056-0.142C51.122,43.389,49.146,42.987,47.438,42.987z" opacity=".3"/><path fill="#0fd2ff" d="M48.495,71c-0.185,0-0.369-0.004-0.556-0.01c-7.471-0.416-12.985-4.12-15.169-10.165	c-2.326-6.44-0.446-14.197,4.572-18.863c4.708-4.38,11.301-5.153,18.088-2.126c1.009,0.449,1.462,1.632,1.012,2.641	c-0.449,1.009-1.632,1.463-2.641,1.012c-5.325-2.373-10.206-1.879-13.735,1.403c-3.816,3.548-5.303,9.678-3.533,14.574	c1.636,4.53,5.751,7.203,11.588,7.528c5.781,0.206,9.578-3.787,11.2-7.59c2.061-4.826,1.171-10.105-2.266-13.449	c-0.792-0.771-0.81-2.036-0.039-2.828c0.771-0.793,2.037-0.809,2.828-0.039c4.631,4.506,5.87,11.526,3.156,17.887	C60.345,67.2,54.82,70.999,48.495,71z" opacity=".3"/><path fill="#d22730" d="M24,31c-1.657,0-3-1.343-3-3v-6c0-1.657,1.343-3,3-3s3,1.343,3,3v6	C27,29.657,25.657,31,24,31z" opacity=".3"/><path fill="#d22730" d="M24,30c-1.104,0-2-0.896-2-2v-6c0-1.104,0.896-2,2-2s2,0.896,2,2v6	C26,29.104,25.104,30,24,30z" opacity=".3"/><path fill="#44d62c" d="M29,31c-1.657,0-3-1.343-3-3v-6c0-1.657,1.343-3,3-3s3,1.343,3,3v6	C32,29.657,30.657,31,29,31z" opacity=".3"/><path fill="#44d62c" d="M29,30c-1.104,0-2-0.896-2-2v-6c0-1.104,0.896-2,2-2s2,0.896,2,2v6	C31,29.104,30.104,30,29,30z" opacity=".3"/><path fill="#e0e722" d="M34,31c-1.657,0-3-1.343-3-3v-6c0-1.657,1.343-3,3-3s3,1.343,3,3v6	C37,29.657,35.657,31,34,31z" opacity=".3"/><path fill="#e0e722" d="M34,30c-1.104,0-2-0.896-2-2v-6c0-1.104,0.896-2,2-2s2,0.896,2,2v6	C36,29.104,35.104,30,34,30z" opacity=".3"/><path fill="#0fd2ff" d="M69.001,31.94c-1.526,0-3.028-0.614-4.193-1.813c-2.044-1.984-2.357-5.003-0.718-7.45	c1.673-2.496,4.767-3.492,7.36-2.362c0.7,0.304,1.225,0.842,1.523,1.482c0.646,0.26,1.206,0.744,1.55,1.413	c1.331,2.59,0.477,5.776-2.032,7.578C71.416,31.561,70.201,31.94,69.001,31.94z M69.188,25.952h0.01H69.188z" opacity=".3"/><path fill="#0fd2ff" d="M68.991,30.953c-1.256,0-2.487-0.515-3.466-1.522c-1.708-1.657-1.967-4.165-0.604-6.197	c1.403-2.095,3.981-2.937,6.131-2.002c0.604,0.262,1.012,0.785,1.151,1.38c0.594,0.105,1.134,0.478,1.431,1.056	c1.104,2.146,0.377,4.799-1.726,6.309C70.996,30.631,69.986,30.953,68.991,30.953z M69.213,24.851c-0.355,0-0.745,0.274-0.97,0.609	c-0.42,0.627-0.062,0.976,0.11,1.143c0.2,0.205,0.574,0.589,1.222,0.124c0.32-0.23,0.74-0.768,0.502-1.231	c-0.077-0.149-0.133-0.304-0.17-0.46c-0.151-0.026-0.302-0.071-0.449-0.136C69.38,24.866,69.297,24.851,69.213,24.851z" opacity=".3"/><path fill="#ffad00" d="M30.372,79.954c-5.146,0-8.637-0.524-10.965-2.696c-2.228-2.079-3.263-5.552-3.459-11.611	c-0.131-3.989,0.096-19.573,0.497-25.712c0.036-0.55,0.493-0.951,1.063-0.933c0.551,0.036,0.969,0.512,0.933,1.063	c-0.398,6.095-0.624,21.559-0.495,25.517c0.179,5.478,1.023,8.531,2.825,10.214c2.666,2.487,7.929,2.294,16.645,1.976	c3.072-0.112,6.556-0.24,10.522-0.272c4.007,0.031,7.508,0.159,10.597,0.272c8.707,0.317,13.966,0.511,16.615-1.995	c1.861-1.762,2.704-5.071,2.816-11.067c0.065-3.432,0.287-18.98,0.096-26.766C78.036,36.854,77.158,36,76.063,36H61.216	c-0.976,0-1.91-0.271-2.703-0.786C57.022,34.248,53.011,32,47.947,32s-9.075,2.248-10.565,3.214C36.589,35.729,35.654,36,34.678,36	H19.995c-1.07,0-2.076-0.417-2.832-1.173c-0.755-0.756-1.169-1.76-1.168-2.827L16,25c0-6.645,3.126-9,11.947-9	c1.213,0,2.771-0.005,4.549-0.01c4.342-0.013,10.29-0.029,15.46,0.011l4.228-0.039c15.164-0.146,21.436-0.206,24.441,2.772	c2.21,2.188,2.322,5.707,2.322,11.266c0,0.553-0.447,1-1,1s-1-0.447-1-1c0-5.527-0.171-8.301-1.729-9.845	c-2.414-2.391-8.867-2.329-23.015-2.193l-4.247,0.039c-5.175-0.04-11.118-0.023-15.454-0.011C30.723,17.995,29.161,18,27.947,18	C19.382,18,18,20.063,18,25l-0.005,7.002c-0.001,0.533,0.206,1.034,0.583,1.411C18.956,33.792,19.459,34,19.995,34h14.683	c0.589,0,1.147-0.16,1.616-0.464C38.33,32.216,42.551,30,47.947,30s9.617,2.216,11.653,3.536C60.069,33.84,60.627,34,61.216,34	h14.848c2.188,0,3.945,1.711,3.999,3.895c0.192,7.821-0.03,23.412-0.096,26.852c-0.126,6.672-1.123,10.289-3.442,12.482	c-3.259,3.084-8.828,2.879-18.063,2.542c-3.075-0.113-6.561-0.24-10.523-0.271c-3.922,0.032-7.39,0.159-10.45,0.271	C34.822,79.868,32.461,79.954,30.372,79.954z"/><path fill="#0fd2ff" d="M48.492,70c-0.172,0-0.344-0.003-0.518-0.01c-9.618-0.535-13.063-6.185-14.264-9.505	c-2.159-5.979-0.346-13.46,4.313-17.791c2.587-2.405,8.235-5.854,17-1.945c0.505,0.225,0.731,0.816,0.506,1.32	s-0.816,0.733-1.32,0.506c-5.716-2.549-10.981-1.988-14.823,1.584c-4.098,3.809-5.692,10.39-3.794,15.646	c1.782,4.931,6.212,7.839,12.474,8.188c6.326,0.223,10.424-4.089,12.176-8.196c2.224-5.21,1.247-10.925-2.488-14.559	c-0.396-0.385-0.404-1.019-0.02-1.414c0.386-0.395,1.019-0.405,1.414-0.02c4.332,4.215,5.484,10.801,2.934,16.777	C59.586,66.43,54.41,69.999,48.492,70z"/><path fill="#d22730" d="M24,29c-0.553,0-1-0.447-1-1v-6c0-0.553,0.447-1,1-1s1,0.447,1,1v6C25,28.553,24.553,29,24,29z"/><path fill="#44d62c" d="M29,29c-0.553,0-1-0.447-1-1v-6c0-0.553,0.447-1,1-1s1,0.447,1,1v6C30,28.553,29.553,29,29,29z"/><path fill="#e0e722" d="M34,29c-0.553,0-1-0.447-1-1v-6c0-0.553,0.447-1,1-1s1,0.447,1,1v6C35,28.553,34.553,29,34,29z"/><path fill="#0fd2ff" d="M68.998,29.943c-0.999,0-1.978-0.408-2.756-1.21c-1.392-1.352-1.593-3.3-0.491-4.943	c0.973-1.45,2.966-2.484,4.902-1.642c0.507,0.22,0.739,0.809,0.519,1.315c-0.22,0.506-0.809,0.739-1.315,0.519	c-0.932-0.404-1.933,0.158-2.443,0.921c-0.267,0.397-0.775,1.427,0.244,2.417c1.069,1.101,2.184,0.445,2.501,0.219	c0.76-0.546,1.281-1.58,0.808-2.501c-0.252-0.491-0.059-1.094,0.433-1.347c0.493-0.255,1.094-0.059,1.347,0.433	c0.99,1.928,0.035,3.994-1.421,5.039C70.597,29.686,69.791,29.943,68.998,29.943z"/></svg>