<svg xmlns="http://www.w3.org/2000/svg"  viewBox="0 0 96 96" width="96px" height="96px" baseProfile="basic"><path fill="#4d4dff" d="M74.103,82.001c-0.051,0-0.101,0-0.152-0.001L22,82c-2.08,0-4.023-0.8-5.473-2.253	c-1.631-1.634-2.524-3.99-2.519-6.635C14.073,44.443,14.001,22.231,14,22.01c0-4.411,3.586-8,7.993-8.01	c22.155-0.051,37.798-0.068,46.488-0.054c4.043,0.007,8.152,0.387,10.823,3.1c2.54,2.579,2.819,6.353,2.779,9.353l-0.013,0.936	C81.966,34.976,81.79,47.765,82,65.965c0.012,1.056-0.522,1.991-1.341,2.535c0.704,0.468,1.207,1.229,1.318,2.135	c0.436,3.548-0.41,6.895-2.261,8.952C78.294,81.168,76.355,82.001,74.103,82.001z M61.438,19.941c-9.132,0-22.342,0.02-39.431,0.059	C20.9,20.002,20,20.9,20,22c0.001,0.211,0.073,22.439,0.009,51.126c-0.003,1.039,0.27,1.886,0.766,2.383	C21.1,75.835,21.512,76,22,76h52c0.771,0.008,1.061-0.208,1.256-0.426c0.665-0.739,0.979-2.469,0.767-4.208	c-0.143-1.166,0.403-2.257,1.318-2.865c-0.798-0.531-1.329-1.435-1.341-2.465c-0.211-18.277-0.034-31.113,0.071-38.783l0.013-0.935	c0.036-2.648-0.309-4.304-1.055-5.061c-0.873-0.887-2.957-1.303-6.558-1.31C66.488,19.943,64.141,19.941,61.438,19.941z" opacity=".3"/><path fill="#4d4dff" d="M74.101,81.001c-0.044,0-0.089,0-0.134-0.001L22,81c-1.813,0-3.505-0.696-4.765-1.959	c-1.441-1.445-2.232-3.549-2.227-5.926C15.073,44.443,15.001,22.228,15,22.007c0-3.858,3.138-6.998,6.995-7.007	c22.153-0.051,37.79-0.07,46.485-0.054c5.231,0.009,8.161,0.821,10.111,2.801c1.779,1.807,2.548,4.471,2.492,8.637l-0.013,0.936	C80.966,34.967,80.79,47.763,81,65.977c0.013,1.104-0.872,2.01-1.977,2.023c-0.008,0-0.016,0-0.023,0c-1.095,0-1.987-0.88-2-1.977	c-0.211-18.264-0.034-31.092,0.071-38.757l0.013-0.935c0.04-2.97-0.386-4.806-1.342-5.776c-1.089-1.105-3.33-1.601-7.27-1.608	c-8.685-0.014-24.32,0.003-46.468,0.054C20.348,19.004,19,20.35,19,22c0.001,0.214,0.073,22.44,0.009,51.124	c-0.003,1.307,0.373,2.405,1.059,3.092C20.578,76.729,21.247,77,22,77h52c0.882,0.022,1.521-0.226,2-0.758	c0.87-0.967,1.269-2.93,1.015-4.999c-0.134-1.096,0.646-2.094,1.742-2.229c1.075-0.13,2.093,0.644,2.229,1.742	c0.4,3.265-0.352,6.316-2.012,8.161C77.746,80.282,76.063,81.001,74.101,81.001z" opacity=".3"/><path fill="#0fd2ff" d="M64,43c-9.252,0-15-5.748-15-15c0-1.657,1.343-3,3-3s3,1.343,3,3c0,7.438,4.895,9,9,9	c1.657,0,3,1.343,3,3S65.657,43,64,43z" opacity=".3"/><path fill="#0fd2ff" d="M64,42c-8.636,0-14-5.364-14-14c0-1.104,0.896-2,2-2s2,0.896,2,2c0,8.701,6.266,10,10,10	c1.104,0,2,0.896,2,2S65.104,42,64,42z" opacity=".3"/><path fill="#0fd2ff" d="M43,70c-7.512,0-12-6.102-12-12c0-2.815,1.01-12,14-12c1.657,0,3,1.343,3,3s-1.343,3-3,3	c-7.171,0-8,3.424-8,6c0,2.491,1.861,6,6,6c1.484,0,6,0,6-7V41.25c0-1.657,1.343-3,3-3s3,1.343,3,3V57C55,65.019,50.402,70,43,70z" opacity=".3"/><path fill="#0fd2ff" d="M43,69c-6.886,0-11-5.593-11-11c0-2.581,0.938-11,13-11c1.104,0,2,0.896,2,2	s-0.896,2-2,2c-5.972,0-9,2.355-9,7c0,2.907,2.172,7,7,7c5.785,0,7-4.351,7-8V41.25c0-1.104,0.896-2,2-2s2,0.896,2,2V57	C54,64.402,49.785,69,43,69z" opacity=".3"/><path fill="#4d4dff" d="M74.1,80.001c-0.039,0-0.077,0-0.116-0.001H22c-1.545,0-2.985-0.591-4.057-1.665	c-1.253-1.255-1.939-3.108-1.935-5.218C16.073,44.442,16.001,22.225,16,22.003c0-3.304,2.69-5.996,5.998-6.003	c22.152-0.05,37.79-0.068,46.48-0.054c4.935,0.009,7.658,0.734,9.401,2.503c1.576,1.601,2.256,4.044,2.204,7.922l-0.013,0.936	c-0.105,7.65-0.282,20.455-0.071,38.681c0.006,0.552-0.437,1.005-0.988,1.012c-0.6,0.002-1.005-0.437-1.012-0.988	c-0.211-18.251-0.034-31.072,0.071-38.732l0.013-0.935c0.045-3.3-0.458-5.302-1.629-6.492c-1.31-1.329-3.695-1.899-7.98-1.906	C59.788,17.93,44.152,17.949,22.002,18C19.796,18.005,18,19.799,18,22c0.001,0.218,0.073,22.44,0.009,51.122	c-0.004,1.574,0.476,2.924,1.351,3.8C20.063,77.627,20.976,78,22,78h52c1.198,0.022,2.066-0.337,2.743-1.089	c1.281-1.424,1.493-3.924,1.265-5.79c-0.067-0.548,0.322-1.047,0.87-1.114c0.559-0.065,1.048,0.323,1.114,0.871	c0.366,2.982-0.293,5.737-1.763,7.371C77.197,79.396,75.771,80.001,74.1,80.001z"/><path fill="#0fd2ff" d="M64,41c-8.141,0-13-4.86-13-13c0-0.552,0.447-1,1-1s1,0.448,1,1c0,6.991,4.01,11,11,11	c0.553,0,1,0.448,1,1S64.553,41,64,41z"/><path fill="#0fd2ff" d="M43,68c-6.26,0-10-5.084-10-10c0-3.007,1.169-10,12-10c0.553,0,1,0.448,1,1s-0.447,1-1,1	c-8.265,0-10,4.351-10,8c0,3.322,2.482,8,8,8c6.961,0,8-5.639,8-9V41.25c0-0.552,0.447-1,1-1s1,0.448,1,1V57	C53,63.888,49.262,68,43,68z"/></svg>